<svg viewBox="0 0 40 40" fill="none" xmlns="http://www.w3.org/2000/svg"><path opacity="0.4" d="M29.967 17.983v6.667c0 .433-.016.85-.066 1.25-.384 4.5-3.034 6.733-7.917 6.733h-.667c-.416 0-.816.2-1.066.534l-2 2.666c-.884 1.184-2.317 1.184-3.2 0l-2-2.666c-.217-.284-.7-.534-1.067-.534h-.667c-5.316 0-7.983-1.316-7.983-7.983v-6.667c0-4.883 2.25-7.533 6.733-7.916.4-.05.817-.067 1.25-.067h10.667c5.317 0 7.983 2.667 7.983 7.983Z" fill="currentColor"></path><path d="M16.65 23.333a1.66 1.66 0 0 1-1.668-1.666c0-.917.75-1.667 1.667-1.667s1.667.75 1.667 1.667a1.66 1.66 0 0 1-1.667 1.666ZM22.483 23.333a1.66 1.66 0 0 1-1.667-1.666c0-.917.75-1.667 1.667-1.667s1.667.75 1.667 1.667c0 .916-.75 1.666-1.667 1.666ZM10.833 23.333a1.66 1.66 0 0 1-1.667-1.666c0-.917.75-1.667 1.667-1.667.916 0 1.666.75 1.666 1.667 0 .916-.75 1.666-1.666 1.666Z" fill="currentColor"></path><path d="M36.633 11.316v6.667c0 4.9-2.25 7.533-6.733 7.917.05-.4.066-.817.066-1.25v-6.667c0-5.317-2.666-7.983-7.983-7.983H11.316c-.433 0-.85.016-1.25.066.384-4.483 3.034-6.733 7.917-6.733H28.65c5.316 0 7.983 2.667 7.983 7.983Z" fill="currentColor"></path></svg>