<svg viewBox="0 0 40 40" fill="none" xmlns="http://www.w3.org/2000/svg"><path d="M31.783 23.733a1.197 1.197 0 0 1-1.717 0 1.197 1.197 0 0 1 0-1.716c3.334-3.334 3.334-8.75 0-12.067-3.333-3.317-8.75-3.333-12.066 0-3.317 3.334-3.334 8.75 0 12.067.483.483.483 1.25 0 1.716a1.197 1.197 0 0 1-1.717 0c-4.284-4.283-4.284-11.25 0-15.516 4.283-4.267 11.25-4.284 15.516 0 4.267 4.283 4.267 11.233-.016 15.516Z" fill="#EF940F"></path><path opacity="0.4" d="M31.784 8.217c4.283 4.283 4.283 11.233 0 15.516a11.022 11.022 0 0 1-5.15 2.9 10.94 10.94 0 0 0-2.9-10.366 10.94 10.94 0 0 0-10.367-2.9c.467-1.884 1.417-3.684 2.9-5.15 4.284-4.284 11.233-4.284 15.517 0Z" fill="#EF940F"></path><path d="M8.217 16.267a1.197 1.197 0 0 1 1.716 0c.483.483.483 1.25 0 1.716-3.333 3.334-3.333 8.75 0 12.067 3.334 3.317 8.75 3.333 12.067 0s3.333-8.75 0-12.067a1.197 1.197 0 0 1 0-1.716 1.197 1.197 0 0 1 1.716 0c4.284 4.283 4.284 11.25 0 15.517-4.283 4.266-11.25 4.283-15.516 0-4.267-4.284-4.267-11.234.017-15.517Z" fill="#EF940F"></path><path opacity="0.5" d="M23.734 16.267a10.94 10.94 0 0 1 2.9 10.366 11.022 11.022 0 0 1-2.9 5.15c-4.283 4.284-11.233 4.284-15.517 0-4.283-4.283-4.283-11.233 0-15.516 1.467-1.484 3.267-2.434 5.15-2.9 3.6-.884 7.55.083 10.367 2.9Z" fill="#EF940F"></path></svg>