<svg viewBox="0 0 40 40" fill="none" xmlns="http://www.w3.org/2000/svg"><path opacity="0.4" d="M35.617 18.983v9.984c0 4.6-3.733 8.333-8.333 8.333H12.717a8.336 8.336 0 0 1-8.333-8.333V19.1C5.65 20.467 7.45 21.25 9.4 21.25c2.1 0 4.117-1.05 5.384-2.733C15.917 20.2 17.85 21.25 20 21.25c2.134 0 4.034-1 5.184-2.667 1.283 1.65 3.267 2.667 5.333 2.667 2.017 0 3.85-.817 5.1-2.267Z" fill="#EF940F"></path><path d="M24.983 2.083h-10L13.75 14.35c-.1 1.133.067 2.2.483 3.167.967 2.266 3.234 3.733 5.767 3.733 2.567 0 4.783-1.433 5.783-3.717.3-.716.484-1.55.5-2.4v-.316l-1.3-12.734Z" fill="#EF940F"></path><path opacity="0.6" d="m37.267 13.783-.484-4.616c-.7-5.034-2.983-7.084-7.866-7.084h-6.4l1.233 12.5c.017.167.033.35.033.667.1.867.367 1.667.767 2.383 1.2 2.2 3.533 3.617 5.967 3.617 2.216 0 4.216-.983 5.466-2.717 1-1.333 1.45-3.016 1.284-4.75ZM10.984 2.083c-4.9 0-7.167 2.05-7.884 7.134L2.65 13.8c-.166 1.783.317 3.517 1.367 4.867 1.267 1.65 3.217 2.583 5.383 2.583 2.434 0 4.767-1.417 5.95-3.583.434-.75.717-1.617.8-2.517l1.3-13.05h-6.466v-.017Z" fill="#EF940F"></path><path d="M18.917 27.767c-2.117.216-3.717 2.016-3.717 4.15V37.3h9.584v-4.8c.016-3.483-2.034-5.133-5.867-4.733Z" fill="#EF940F"></path></svg>