<svg viewBox="0 0 40 40" fill="none" xmlns="http://www.w3.org/2000/svg"><path opacity="0.4" d="M35 37.917H5a1.26 1.26 0 0 1-1.25-1.25c0-.684.567-1.25 1.25-1.25h30c.683 0 1.25.566 1.25 1.25a1.26 1.26 0 0 1-1.25 1.25Z" fill="#EF940F"></path><path d="M9.333 13.967H6.667c-.917 0-1.667.75-1.667 1.666V30c0 .917.75 1.667 1.667 1.667h2.666c.917 0 1.667-.75 1.667-1.667V15.633a1.66 1.66 0 0 0-1.667-1.666ZM21.333 8.65h-2.666C17.75 8.65 17 9.4 17 10.317V30c0 .917.75 1.667 1.667 1.667h2.666c.917 0 1.667-.75 1.667-1.667V10.317c0-.917-.75-1.667-1.667-1.667ZM33.333 3.333h-2.666C29.75 3.333 29 4.083 29 5v25c0 .917.75 1.667 1.667 1.667h2.666c.917 0 1.667-.75 1.667-1.667V5c0-.917-.75-1.667-1.667-1.667Z" fill="#EF940F"></path></svg>